<svg width="18" height="18" viewBox="0 0 18 18" fill="none" xmlns="http://www.w3.org/2000/svg">
<path d="M9 17.9633C6.48333 17.9633 4.35433 17.0923 2.613 15.3503C0.871667 13.6083 0.000666667 11.4793 0 8.9633C0 6.6633 0.75 4.6673 2.25 2.9753C3.75 1.2833 5.66667 0.295965 8 0.0132979C8.21667 -0.0200355 8.40833 0.00929792 8.575 0.101298C8.74167 0.193298 8.875 0.313965 8.975 0.463298C9.075 0.612631 9.12933 0.787631 9.138 0.988298C9.14667 1.18896 9.084 1.38063 8.95 1.5633C8.66667 1.99663 8.454 2.45496 8.312 2.9383C8.17 3.42163 8.09933 3.92996 8.1 4.4633C8.1 5.9633 8.625 7.2383 9.675 8.2883C10.725 9.3383 12 9.8633 13.5 9.8633C14.0167 9.8633 14.5293 9.7883 15.038 9.6383C15.5467 9.4883 16.0007 9.27996 16.4 9.0133C16.5833 8.89663 16.771 8.84263 16.963 8.8513C17.155 8.85996 17.3257 8.90563 17.475 8.9883C17.6417 9.07163 17.771 9.19663 17.863 9.3633C17.955 9.52996 17.984 9.72996 17.95 9.9633C17.7167 12.2633 16.7377 14.1716 15.013 15.6883C13.2883 17.205 11.284 17.9633 9 17.9633Z" fill="#36465D"/>
</svg>
