<svg width="22" height="22" viewBox="0 0 22 22" fill="none" xmlns="http://www.w3.org/2000/svg">
<path d="M11 16C9.61667 16 8.43767 15.5123 7.463 14.537C6.48833 13.5617 6.00067 12.3827 6 11C5.99933 9.61733 6.487 8.43833 7.463 7.463C8.439 6.48767 9.618 6 11 6C12.382 6 13.5613 6.48767 14.538 7.463C15.5147 8.43833 16.002 9.61733 16 11C15.998 12.3827 15.5103 13.562 14.537 14.538C13.5637 15.514 12.3847 16.0013 11 16ZM4 12H0V10H4V12ZM22 12H18V10H22V12ZM10 4V0H12V4H10ZM10 22V18H12V22H10ZM5.4 6.75L2.875 4.325L4.3 2.85L6.7 5.35L5.4 6.75ZM17.7 19.15L15.275 16.625L16.6 15.25L19.125 17.675L17.7 19.15ZM15.25 5.4L17.675 2.875L19.15 4.3L16.65 6.7L15.25 5.4ZM2.85 17.7L5.375 15.275L6.75 16.6L4.325 19.125L2.85 17.7Z" fill="white"/>
</svg>
