<svg width="40" height="40" viewBox="0 0 40 40" fill="none" xmlns="http://www.w3.org/2000/svg">
<path d="M38.304 39.9998C37.8542 39.9998 37.4229 39.8243 37.1048 39.5117C36.7868 39.1991 36.6081 38.7752 36.6081 38.3332V1.66666C36.6081 1.22463 36.7868 0.800713 37.1048 0.488153C37.4229 0.175594 37.8542 0 38.304 0C38.7538 0 39.1851 0.175594 39.5031 0.488153C39.8212 0.800713 39.9998 1.22463 39.9998 1.66666V38.3332C40.0029 38.5529 39.9611 38.771 39.877 38.9745C39.7928 39.1781 39.668 39.363 39.5099 39.5184C39.3518 39.6737 39.1637 39.7964 38.9565 39.8791C38.7494 39.9618 38.5275 40.0028 38.304 39.9998ZM30.6161 18.691C30.6364 19.4654 30.4733 20.2339 30.1398 20.9357C29.8063 21.6376 29.3113 22.2537 28.6941 22.7355L8.09498 38.491C7.35784 39.0398 6.48277 39.3799 5.56248 39.4687H5.04242C4.25955 39.488 3.48363 39.3202 2.78127 38.9799C1.94496 38.5787 1.23991 37.9551 0.746228 37.1799C0.254658 36.4072 -0.00406172 35.5134 4.82153e-05 34.6021V5.37998C0.00249015 4.5036 0.244589 3.64399 0.701005 2.8911C1.17138 2.14266 1.83435 1.52944 2.62299 1.11333C3.40854 0.696021 4.29469 0.496268 5.18678 0.535408C6.07886 0.574547 6.94337 0.851109 7.68797 1.33555L28.3097 14.8466C28.9654 15.2711 29.5081 15.8422 29.8925 16.5133C30.2982 17.176 30.5456 17.9207 30.6161 18.691Z" fill="white"/>
</svg>
