<svg width="74" height="74" viewBox="0 0 74 74" fill="none" xmlns="http://www.w3.org/2000/svg">
<path d="M20.0892 22.3782C20.0892 17.7185 21.9403 13.2496 25.2352 9.95472C28.5301 6.65981 32.9989 4.80875 37.6587 4.80875C42.3184 4.80875 46.7872 6.65981 50.0821 9.95472C53.377 13.2496 55.2281 17.7185 55.2281 22.3782C55.2281 27.0379 53.377 31.5068 50.0821 34.8017C46.7872 38.0966 42.3184 39.9476 37.6587 39.9476C32.9989 39.9476 28.5301 38.0966 25.2352 34.8017C21.9403 31.5068 20.0892 27.0379 20.0892 22.3782ZM37.0414 44.5646C37.173 44.5447 37.3057 44.5335 37.4387 44.531H37.8787C38.0131 44.531 38.1455 44.5422 38.2759 44.5646L60.5662 48.4849L60.6823 48.5093C64.7889 49.4565 69.2012 52.0629 70.0598 57.126L70.072 57.2146L70.4203 59.8943V59.9004C71.227 66.039 66.3595 70.5032 60.612 70.5032C60.4852 70.5009 60.3586 70.4907 60.2331 70.4726H14.7053C8.95782 70.4726 4.08726 66.0054 4.89699 59.8638L5.24532 57.2085L5.2606 57.1168C6.11615 52.1454 10.565 49.3924 14.6625 48.5032L14.7512 48.4849L37.0414 44.5646Z" fill="white"/>
</svg>
