<svg width="60" height="60" viewBox="0 0 60 60" fill="none" xmlns="http://www.w3.org/2000/svg">
<g clip-path="url(#clip0_258_1085)">
<path d="M53.0233 35.25C53.0233 34.6533 52.8027 34.081 52.4102 33.659C52.0177 33.2371 51.4853 33 50.9302 33H42.5581C42.003 33 41.4707 33.2371 41.0781 33.659C40.6856 34.081 40.4651 34.6533 40.4651 35.25V55.5H36.2791V6.75C36.2791 4.566 36.2735 3.15 36.1451 2.112C36.0223 1.137 35.8242 0.831 35.6651 0.66C35.506 0.489 35.2214 0.276 34.3144 0.144C33.346 0.00600029 32.0316 0 30 0C27.9684 0 26.6512 0.00600029 25.6856 0.144C24.7786 0.276 24.494 0.489 24.3349 0.66C24.1758 0.831 23.9777 1.137 23.8549 2.112C23.7265 3.153 23.7209 4.566 23.7209 6.75V55.5H19.5349V20.25C19.5349 19.6533 19.3144 19.081 18.9219 18.659C18.5293 18.2371 17.997 18 17.4419 18H9.06977C8.51466 18 7.98229 18.2371 7.58978 18.659C7.19726 19.081 6.97674 19.6533 6.97674 20.25V55.5H2.09302C1.53792 55.5 1.00555 55.7371 0.613032 56.159C0.220514 56.581 0 57.1533 0 57.75C0 58.3467 0.220514 58.919 0.613032 59.341C1.00555 59.7629 1.53792 60 2.09302 60H57.907C58.4621 60 58.9944 59.7629 59.387 59.341C59.7795 58.919 60 58.3467 60 57.75C60 57.1533 59.7795 56.581 59.387 56.159C58.9944 55.7371 58.4621 55.5 57.907 55.5H53.0233V35.25Z" fill="#07B6D5"/>
</g>
<defs>
<clipPath id="clip0_258_1085">
<rect width="60" height="60" fill="white"/>
</clipPath>
</defs>
</svg>
