<svg width="24" height="24" viewBox="0 0 24 24" fill="none" xmlns="http://www.w3.org/2000/svg">
<path fill-rule="evenodd" clip-rule="evenodd" d="M2.49548 6.00049C2.07548 5.98899 1.42548 6.13499 0.908984 6.92549C0.671484 7.28899 0.717984 7.74049 0.928984 8.07549C1.52898 9.02949 2.22898 9.87749 3.00398 10.616L1.39898 12.027C0.873984 12.489 0.630484 13.287 1.09398 13.915C1.30317 14.2006 1.55123 14.4555 1.83098 14.6725C2.45298 15.1485 3.24948 14.8585 3.69098 14.3495L5.37398 12.408C6.1034 12.8392 6.87323 13.1981 7.67248 13.4795L6.85048 15.9155C6.62648 16.578 6.81548 17.39 7.53148 17.702C7.85539 17.8451 8.1977 17.9422 8.54848 17.9905C9.32548 18.0925 9.87048 17.4435 9.99748 16.782L10.5075 14.1365C11.4006 14.2405 12.3022 14.2509 13.1975 14.1675L13.7005 16.7825C13.828 17.4435 14.3725 18.0925 15.1495 17.9905C15.5003 17.9422 15.8426 17.8451 16.1665 17.702C16.883 17.39 17.0715 16.5775 16.848 15.9155L16.057 13.572C16.8794 13.3025 17.6728 12.9516 18.4255 12.5245L20.0075 14.3495C20.449 14.8585 21.2455 15.1485 21.8675 14.6725C22.1745 14.4375 22.4175 14.1675 22.604 13.915C23.068 13.2865 22.824 12.489 22.299 12.027L20.8505 10.7535C21.7053 9.96232 22.4521 9.06189 23.0715 8.07549C23.2825 7.74049 23.3285 7.28899 23.0915 6.92549C22.575 6.13499 21.9245 5.98899 21.5045 6.00049C21.1765 6.00999 20.9405 6.22549 20.7965 6.42849C18.663 9.42499 15.3375 10.827 12 10.827C8.66298 10.827 5.33698 9.42499 3.20398 6.42849C3.05948 6.22599 2.82348 6.00999 2.49548 6.00049Z" fill="black"/>
</svg>
