<svg width="60" height="45" viewBox="0 0 60 45" fill="none" xmlns="http://www.w3.org/2000/svg">
<path d="M13.4504 4.51467C13.7078 4.20745 13.8345 3.81156 13.8032 3.41198C13.772 3.0124 13.5854 2.64099 13.2834 2.37748C12.9814 2.11397 12.5881 1.97937 12.188 2.00257C11.7879 2.02577 11.4128 2.20493 11.1433 2.50158L8.50545 5.52325C7.00969 7.23737 6.16415 9.42277 6.1167 11.6973L6.00033 17.2485C5.99193 17.6547 6.14521 18.0475 6.42644 18.3406C6.70767 18.6337 7.09382 18.803 7.49993 18.8114C7.90604 18.8198 8.29886 18.6666 8.59196 18.3853C8.88506 18.1041 9.05443 17.7179 9.06283 17.3118L9.17716 11.7626C9.20992 10.2063 9.78879 8.71103 10.8125 7.53838L13.4504 4.51467Z" fill="#F4A605"/>
<path fill-rule="evenodd" clip-rule="evenodd" d="M17.5199 13.6375C17.657 11.4532 18.6214 9.40325 20.2167 7.90498C21.8121 6.40672 23.9185 5.57277 26.1071 5.57292H27.2443V4.04167C27.2443 3.50018 27.4594 2.98088 27.8423 2.59799C28.2252 2.2151 28.7445 2 29.286 2C29.8275 2 30.3468 2.2151 30.7297 2.59799C31.1126 2.98088 31.3277 3.50018 31.3277 4.04167V5.57292H32.4649C34.6535 5.57277 36.7599 6.40672 38.3552 7.90498C39.9506 9.40325 40.915 11.4532 41.0521 13.6375L41.5033 20.8528C41.6777 23.6033 42.6012 26.2538 44.1738 28.5172C44.4992 28.9848 44.698 29.5288 44.7509 30.096C44.8038 30.6633 44.709 31.2346 44.4758 31.7544C44.2425 32.2741 43.8787 32.7247 43.4197 33.0622C42.9607 33.3998 42.4222 33.6128 41.8565 33.6805L34.9006 34.5135V36.7083C34.9006 38.1974 34.309 39.6255 33.2561 40.6784C32.2032 41.7314 30.7751 42.3229 29.286 42.3229C27.7969 42.3229 26.3688 41.7314 25.3159 40.6784C24.2629 39.6255 23.6714 38.1974 23.6714 36.7083V34.5135L16.7154 33.6785C16.1501 33.6105 15.6119 33.3975 15.1533 33.0601C14.6946 32.7227 14.331 32.2724 14.0977 31.7529C13.8645 31.2335 13.7696 30.6625 13.8222 30.0955C13.8749 29.5285 14.0733 28.9848 14.3982 28.5172C15.9707 26.2538 16.8942 23.6033 17.0687 20.8528L17.5199 13.6375ZM26.7339 36.7083C26.7339 37.3852 27.0028 38.0343 27.4814 38.5129C27.96 38.9915 28.6091 39.2604 29.286 39.2604C29.9628 39.2604 30.612 38.9915 31.0906 38.5129C31.5692 38.0343 31.8381 37.3852 31.8381 36.7083V35.1771H26.7339V36.7083Z" fill="url(#paint0_linear_258_65)"/>
<path d="M45.2894 2.37728C44.9835 2.64427 44.7962 3.02181 44.7687 3.42688C44.7411 3.83195 44.8755 4.23139 45.1424 4.53736L47.7802 7.55903C48.8037 8.7325 49.3819 10.2285 49.4136 11.7853L49.53 17.3325C49.5341 17.5336 49.5778 17.7319 49.6586 17.9161C49.7394 18.1003 49.8557 18.2667 50.0008 18.406C50.146 18.5452 50.3171 18.6545 50.5045 18.7276C50.6918 18.8008 50.8918 18.8362 51.0929 18.8321C51.2939 18.8279 51.4922 18.7842 51.6764 18.7034C51.8606 18.6226 52.0271 18.5064 52.1663 18.3612C52.3056 18.2161 52.4149 18.045 52.488 17.8576C52.5611 17.6702 52.5966 17.4703 52.5925 17.2692L52.4761 11.7199C52.4286 9.44547 51.5831 7.26006 50.0873 5.54594L47.4495 2.52428C47.1825 2.21841 46.805 2.0311 46.3999 2.00354C45.9948 1.97597 45.5954 2.1104 45.2894 2.37728Z" fill="#F4A605"/>
<defs>
<linearGradient id="paint0_linear_258_65" x1="13.8081" y1="22.2055" x2="44.7652" y2="22.1174" gradientUnits="userSpaceOnUse">
<stop stop-color="#F4A605"/>
<stop offset="1" stop-color="#EFDAAF"/>
</linearGradient>
</defs>
</svg>
