<svg width="24" height="24" viewBox="0 0 24 24" fill="none" xmlns="http://www.w3.org/2000/svg">
<path d="M13.0001 3C13.0001 2.73478 12.8948 2.48043 12.7072 2.29289C12.5197 2.10536 12.2653 2 12.0001 2C11.7349 2 11.4806 2.10536 11.293 2.29289C11.1055 2.48043 11.0001 2.73478 11.0001 3V3.75H10.4431C9.37115 3.74993 8.33945 4.15839 7.55805 4.89224C6.77664 5.62608 6.30428 6.63014 6.23712 7.7L6.01612 11.234C5.93069 12.5812 5.47837 13.8794 4.70812 14.988C4.51546 15.2629 4.41352 15.5911 4.41657 15.9267C4.41962 16.2624 4.5275 16.5887 4.72512 16.86C4.80612 16.972 4.96712 16.972 5.06512 16.874L16.5741 5.365C16.619 5.32106 16.6449 5.26125 16.6462 5.19843C16.6476 5.1356 16.6242 5.07477 16.5811 5.029C16.1888 4.62366 15.7188 4.3015 15.1993 4.08176C14.6797 3.86201 14.1212 3.74918 13.5571 3.75H13.0001V3Z" fill="#475A6C"/>
<path fill-rule="evenodd" clip-rule="evenodd" d="M17.7862 8.07402L21.0302 4.83002C21.1626 4.68784 21.2348 4.4998 21.2313 4.3055C21.2279 4.11119 21.1492 3.92581 21.0118 3.7884C20.8744 3.65098 20.689 3.57227 20.4947 3.56884C20.3004 3.56541 20.1123 3.63754 19.9702 3.77002L3.97015 19.77C3.89647 19.8387 3.83736 19.9215 3.79637 20.0135C3.75538 20.1055 3.73334 20.2048 3.73156 20.3055C3.72979 20.4062 3.74831 20.5062 3.78603 20.5996C3.82375 20.693 3.8799 20.7778 3.95112 20.8491C4.02233 20.9203 4.10717 20.9764 4.20056 21.0141C4.29394 21.0519 4.39397 21.0704 4.49468 21.0686C4.59538 21.0668 4.69469 21.0448 4.78669 21.0038C4.87869 20.9628 4.96149 20.9037 5.03015 20.83L8.07615 17.785L9.25015 17.925V19C9.25015 19.7294 9.53988 20.4288 10.0556 20.9446C10.5713 21.4603 11.2708 21.75 12.0002 21.75C12.7295 21.75 13.429 21.4603 13.9447 20.9446C14.4604 20.4288 14.7502 19.7294 14.7502 19V17.925L18.1572 17.516C18.4341 17.4827 18.6976 17.3784 18.9223 17.2131C19.147 17.0479 19.3251 16.8273 19.4393 16.5729C19.5535 16.3184 19.6 16.0388 19.5742 15.7611C19.5484 15.4834 19.4513 15.2171 19.2922 14.988C18.5219 13.8794 18.0696 12.5812 17.9842 11.234L17.7862 8.07402ZM10.7502 19C10.7502 19.3315 10.8818 19.6495 11.1163 19.8839C11.3507 20.1183 11.6686 20.25 12.0002 20.25C12.3317 20.25 12.6496 20.1183 12.884 19.8839C13.1185 19.6495 13.2502 19.3315 13.2502 19V18.25H10.7502V19Z" fill="#475A6C"/>
</svg>
