<svg width="32" height="32" viewBox="0 0 32 32" fill="none" xmlns="http://www.w3.org/2000/svg">
<path d="M2.27832 17.6377L2.30176 17.6611C2.6355 17.7094 2.94732 17.8631 3.18848 18.1045C3.48296 18.3993 3.64844 18.7991 3.64844 19.2158V26.1328L11.6836 18.0908L11.6895 18.084C11.9857 17.7976 12.3829 17.64 12.7949 17.6436C13.207 17.6471 13.6013 17.812 13.8926 18.1035C14.1838 18.395 14.3489 18.7892 14.3525 19.2012C14.3561 19.6132 14.1972 20.0102 13.9111 20.3066L13.9053 20.3135L13.9043 20.3125L5.86914 28.3564H12.7803C13.197 28.3564 13.597 28.5217 13.8916 28.8164C14.1861 29.1111 14.3515 29.5111 14.3516 29.9277C14.3516 30.3444 14.1861 30.7443 13.8916 31.0391C13.597 31.3339 13.1971 31.5 12.7803 31.5H2.07129C1.6545 31.5 1.25454 31.3339 0.959961 31.0391C0.665521 30.7443 0.5 30.3444 0.5 29.9277V19.209C0.500066 18.7923 0.665453 18.3924 0.959961 18.0977C1.25453 17.8029 1.65455 17.6377 2.07129 17.6377H2.27832ZM29.9287 0.5C30.3455 0.5 30.7455 0.666105 31.04 0.960938C31.3345 1.25573 31.5 1.65561 31.5 2.07227V12.791C31.4999 13.2077 31.3345 13.6076 31.04 13.9023C30.7455 14.1971 30.3454 14.3623 29.9287 14.3623H29.7217L29.6973 14.3379C29.3639 14.2895 29.0524 14.1366 28.8115 13.8955C28.517 13.6007 28.3516 13.2009 28.3516 12.7842V5.86621L20.3164 13.9092L20.3105 13.916C20.0143 14.2024 19.6171 14.36 19.2051 14.3564C18.793 14.3529 18.3987 14.188 18.1074 13.8965C17.8163 13.605 17.6511 13.2108 17.6475 12.7988C17.6439 12.3868 17.8028 11.9898 18.0889 11.6934L18.0947 11.6865L26.1309 3.64355H19.2197C18.803 3.64355 18.403 3.47829 18.1084 3.18359C17.8139 2.88886 17.6485 2.48888 17.6484 2.07227C17.6484 1.65559 17.8139 1.25574 18.1084 0.960938C18.403 0.666104 18.8029 0.5 19.2197 0.5H29.9287Z" fill="white" stroke="white"/>
</svg>
