<?xml version="1.0" encoding="UTF-8"?>
<svg version="1.1" xmlns="http://www.w3.org/2000/svg" width="512" height="512">
<path d="M0 0 C0.89107968 -0.00445784 1.78215935 -0.00891569 2.70024145 -0.01350862 C3.67512317 -0.01332426 4.65000489 -0.01313989 5.65442848 -0.01294994 C6.69335766 -0.01662663 7.73228685 -0.02030332 8.80269873 -0.02409142 C12.29540471 -0.03513306 15.78808095 -0.03897298 19.28080177 -0.04278088 C21.78081291 -0.04904532 24.28082311 -0.0556921 26.78083229 -0.0626936 C34.29283237 -0.08192597 41.80482455 -0.09252426 49.31684202 -0.10142139 C52.8585061 -0.10580808 56.40016869 -0.11117405 59.94183159 -0.11641026 C71.72348088 -0.13342413 83.50512925 -0.14791548 95.28678894 -0.155159 C98.34338698 -0.15706876 101.39998501 -0.15898911 104.45658302 -0.16094494 C105.21624605 -0.16142868 105.97590908 -0.16191242 106.7585922 -0.16241082 C119.04826006 -0.17070051 131.33783025 -0.19601872 143.62745552 -0.22852562 C156.25893031 -0.2616628 168.8903556 -0.27961391 181.52187407 -0.28280324 C188.60822837 -0.28496261 195.6944404 -0.29362637 202.78075218 -0.31926441 C209.45383941 -0.34335209 216.12662744 -0.34675547 222.79976463 -0.33650303 C225.2417581 -0.33600889 227.68376436 -0.34229319 230.12571907 -0.35605907 C251.83797982 -0.4715521 268.81728507 2.15973585 285.23636818 17.76312733 C301.27202854 34.20509665 305.04521427 52.44805842 304.94730568 74.62640858 C304.94933302 76.26875404 304.9522499 77.91109862 304.95600319 79.55344105 C304.96038811 82.96717512 304.95411576 86.38067124 304.93998146 89.79437733 C304.92280961 94.15183631 304.93280524 98.50874399 304.95069885 102.86618328 C304.9615715 106.24639466 304.95807584 109.62647652 304.95031548 113.00669193 C304.94832731 114.61332866 304.95072361 116.2199775 304.95775414 117.82660007 C305.019935 136.00646594 305.019935 136.00646594 299.23636818 142.88422108 C293.03459072 148.07640686 288.81930987 150.47391108 280.70121193 150.35297108 C274.84783611 149.75807263 269.6995601 147.284913 265.54886818 143.13422108 C261.37005144 137.09187796 260.42696107 132.34808241 260.40702248 125.10590076 C260.40181084 124.05628414 260.40181084 124.05628414 260.39649391 122.98546314 C260.38915603 121.46915699 260.38380019 119.95284022 260.38020325 118.43652058 C260.37301239 116.03116217 260.35732559 113.62600478 260.33886147 111.22070789 C260.28652083 104.38282525 260.23844959 97.54505358 260.22294044 90.70697498 C260.21282308 86.520004 260.18340468 82.3335411 260.14162064 78.14677143 C260.12935943 76.55692111 260.12418042 74.96699888 260.12641907 73.37710285 C260.32680249 60.56314994 260.32680249 60.56314994 254.17269325 49.63318348 C248.14508621 44.1077185 241.77874504 43.84377972 234.05521584 43.9071703 C233.1179969 43.90687824 232.18077797 43.90658619 231.21515846 43.90628529 C228.13098691 43.9076737 225.0470598 43.92321199 221.96293068 43.93890858 C219.81916371 43.94264044 217.67539503 43.94548659 215.53162575 43.94748402 C209.89934487 43.9551068 204.26716774 43.97474373 198.63492775 43.99689198 C192.88359925 44.01737955 187.13225393 44.02649196 181.38089943 44.03656483 C170.10351019 44.05799084 158.82619782 44.09211049 147.54886818 44.13422108 C148.23648232 44.47073185 148.92409645 44.80724262 149.63254738 45.15395069 C150.53402504 45.59901463 151.4355027 46.04407856 152.36429787 46.50262928 C153.258162 46.94226505 154.15202614 47.38190083 155.07297707 47.83485889 C164.22733585 52.6391201 171.15183737 61.03522347 174.44267923 70.78131366 C176.50490209 78.58827103 176.96684897 85.86445289 176.90963173 93.91553211 C176.91094305 95.26645074 176.91357545 96.61736861 176.91739923 97.96828246 C176.92405215 101.64678168 176.91218406 105.32501483 176.89706504 109.0034802 C176.88403315 112.98285593 176.88849917 116.96221829 176.89077187 120.94160938 C176.89234011 127.82499425 176.88297808 134.70829338 176.86605835 141.59165668 C176.84161171 151.54366373 176.8338573 161.49562958 176.83009437 171.4476634 C176.82353876 187.59662405 176.80360179 203.74553908 176.77518654 219.89447498 C176.74762291 235.57578778 176.72640062 251.25708815 176.7136631 266.9384203 C176.71248085 268.38985162 176.71248085 268.38985162 176.71127471 269.87060478 C176.70735941 274.72518025 176.70356833 279.5797558 176.699839 284.43433142 C176.6687708 324.6676599 176.61595929 364.90093747 176.54886818 405.13422108 C185.12943995 405.09604466 193.70949353 405.03651122 202.28970432 404.95031834 C206.27462698 404.91094572 210.25933205 404.87870764 214.24442482 404.86322498 C218.09616485 404.84799039 221.94730627 404.81342644 225.79877853 404.76591206 C227.26218946 404.75116784 228.72568588 404.74318409 230.18917084 404.74233723 C239.25447938 404.73182358 247.7684371 404.64618592 254.70511818 398.09906483 C255.14855568 397.43004139 255.59199318 396.76101795 256.04886818 396.07172108 C256.51293068 395.40011951 256.97699318 394.72851795 257.45511818 394.03656483 C259.99728801 389.61500515 259.69377693 385.26210805 259.69071388 380.32343006 C259.69418831 379.42221928 259.69766273 378.52100849 259.70124245 377.59248829 C259.70859876 375.6330874 259.71394481 373.67367819 259.71753311 371.71426678 C259.72470333 368.60695509 259.74037614 365.49980088 259.75887489 362.39253712 C259.81130407 353.55669847 259.85927574 344.72094421 259.87479591 335.8849535 C259.88491155 330.48021462 259.91433109 325.07586949 259.95611572 319.67128658 C259.96838396 317.61696897 259.97355466 315.56259563 259.97131729 313.50824261 C259.95214435 290.14800893 259.95214435 290.14800893 266.29857826 283.22575855 C272.09737459 277.75765997 277.721631 276.66802231 285.54105568 276.82172108 C291.51639545 277.4425356 295.12480718 279.74180588 299.36136818 283.88422108 C303.93413215 290.67804183 304.99553457 296.61367495 304.95292091 304.60101795 C304.96321579 305.96873341 304.96321579 305.96873341 304.97371864 307.36407948 C304.99192673 310.36053799 304.98815479 313.3564694 304.98246193 316.35297108 C304.98702929 318.45555254 304.99233651 320.5581325 304.99834633 322.66071033 C305.0072678 327.06535373 305.00486839 331.46981577 304.9949131 335.87445545 C304.98347378 341.47790279 305.00356261 347.08071519 305.03283024 352.68407917 C305.05132087 357.02883257 305.05087351 361.37343777 305.04519272 365.71822071 C305.04504081 367.78157403 305.0509756 369.84493826 305.06348419 371.90825367 C305.17498046 393.3288012 302.0764722 413.03712653 286.6655674 429.14545155 C274.11508586 441.7388114 258.97321195 448.42300457 241.17568398 448.48225307 C238.80641782 448.47389451 236.43755822 448.45082675 234.06839943 448.42718983 C232.40260643 448.42158276 230.73680843 448.41731792 229.07100868 448.41432667 C224.72266509 448.40296517 220.37463026 448.37357475 216.02640724 448.34021473 C211.57495231 448.3093245 207.12344666 448.29578115 202.67191505 448.28070545 C193.96409232 448.24869513 185.25651884 448.19760642 176.54886818 448.13422108 C176.57243385 449.27467884 176.57243385 449.27467884 176.5964756 450.43817616 C176.65950472 453.94094633 176.6980727 457.44359657 176.73636818 460.94672108 C176.7615049 462.14232655 176.78664162 463.33793201 176.81254005 464.56976795 C176.92378718 478.17899931 173.68893946 490.17572326 164.40433693 500.43890858 C153.93467605 510.00487241 142.46925071 513.02999799 128.68335915 512.60879993 C119.96753894 512.01530134 111.97195286 509.01164935 103.80277443 506.10687733 C101.94135249 505.46967708 100.07889998 504.83548067 98.21550941 504.20406055 C94.3068565 502.87624122 90.40350097 501.53425251 86.50327492 500.18188953 C80.61938616 498.14875505 74.71340785 496.18743305 68.7983799 494.24701405 C67.82657091 493.92820082 66.85476192 493.60938759 65.85350418 493.28091335 C63.88859556 492.6365215 61.92365072 491.9922401 59.95866966 491.34806919 C54.07996217 489.41624356 48.2087163 487.46191542 42.33653259 485.51037121 C37.35691431 483.8557657 32.3763452 482.20417128 27.3933506 480.55975819 C22.43321721 478.92284123 17.47559254 477.27853255 12.51966476 475.62892818 C10.66713541 475.01363406 8.81376678 474.40086002 6.95949554 473.79083538 C-10.53871765 468.03031231 -24.50358006 462.95910538 -34.04097557 446.16156483 C-36.69567555 440.46241667 -37.70113832 435.27603473 -37.70840073 429.00981236 C-37.7119068 428.32461641 -37.71541288 427.63942047 -37.71902519 426.93346101 C-37.72830615 424.64456582 -37.72342452 422.35592691 -37.71855736 420.06702137 C-37.72229529 418.40652296 -37.72689738 416.7460263 -37.732288 415.08553243 C-37.74451579 410.52773016 -37.74425779 405.97000131 -37.74189925 401.41218638 C-37.74149103 396.49452284 -37.75253076 391.57688281 -37.76201439 386.65923023 C-37.7786242 377.02642846 -37.78412393 367.39365117 -37.78523915 357.76083627 C-37.78618964 349.9302391 -37.79029999 342.09964999 -37.7966404 334.26905537 C-37.81425282 312.06510665 -37.82347927 289.86117727 -37.82197945 267.65722153 C-37.82189954 266.46031009 -37.82181962 265.26339865 -37.82173729 264.03021717 C-37.82165553 262.83184334 -37.82157377 261.63346952 -37.82148953 260.39878133 C-37.82067665 240.9779455 -37.83981487 221.55718724 -37.86801402 202.13637385 C-37.89674402 182.19250473 -37.91055425 162.24867344 -37.90882647 142.30478311 C-37.90816261 131.10890601 -37.91365339 119.91311023 -37.93518257 108.71725178 C-37.95339587 99.18470441 -37.95774045 89.65227522 -37.94416372 80.11971799 C-37.93763485 75.25758409 -37.93751408 70.39567688 -37.95487022 65.53356457 C-37.9706094 61.07854479 -37.96772867 56.6239313 -37.95030196 52.16892138 C-37.94723393 50.56127212 -37.95085702 48.95359248 -37.96202211 47.34597906 C-38.0463861 34.33205649 -36.21411393 24.10662203 -27.45113182 14.13422108 C-26.94968651 13.5283617 -26.4482412 12.92250233 -25.93160057 12.29828358 C-19.46464725 5.09180031 -9.7698047 0.02273602 0 0 Z " fill="#000000" transform="translate(37.45113182067871,-0.13422107696533203)"/>
<path d="M0 0 C3.36438981 2.56346324 6.2828476 5.48095972 9.24169922 8.49707031 C10.10480209 9.35287186 10.96790497 10.2086734 11.85716248 11.09040833 C14.2008254 13.42071935 16.53038231 15.7635192 18.85390234 18.11381245 C21.2993743 20.58208644 23.76042955 23.03474057 26.2192688 25.48968506 C30.34318922 29.61184528 34.45504523 33.74573929 38.55957031 37.88720703 C43.29239112 42.66238279 48.04265235 47.41963479 52.80292308 52.16743588 C57.39997572 56.75306631 61.98555024 61.3500062 66.56567764 65.95253754 C68.50708272 67.90318566 70.45214829 69.8500693 72.40029526 71.79398346 C75.12359024 74.51278252 77.82987967 77.24813501 80.53466797 79.98535156 C81.73785423 81.18110558 81.73785423 81.18110558 82.96534729 82.40101624 C88.22870768 87.76517284 92.38141125 92.74294041 93.49609375 100.4140625 C93.47675781 101.47367187 93.45742188 102.53328125 93.4375 103.625 C93.43556641 105.22214844 93.43556641 105.22214844 93.43359375 106.8515625 C91.46128799 121.17298988 72.72102426 134.44274295 63.05078125 144.1171875 C61.30674666 145.86444028 59.56278529 147.61176614 57.81889343 149.35916138 C54.18043011 153.00358393 50.53993493 156.64596281 46.89819336 160.28710938 C42.23608082 164.94911985 37.58091334 169.618 32.9274416 174.28863335 C29.33547988 177.89171206 25.73898392 181.4902382 22.1411953 185.08749771 C20.42241955 186.80745169 18.7052609 188.52902328 16.98977089 190.25225449 C14.59466768 192.65716216 12.19330324 195.05564317 9.7902832 197.45263672 C9.08728592 198.16125351 8.38428864 198.8698703 7.6599884 199.59996033 C1.26374762 205.95554869 -3.82244182 210.10389964 -13.1875 210.3125 C-20.16516101 210.22721748 -24.7406309 209.23020249 -29.74609375 204.26953125 C-37.01725628 195.53367411 -36.27946319 184.9335623 -36.1953125 174.12109375 C-36.1915749 172.69906311 -36.18873146 171.27702988 -36.18673706 169.85499573 C-36.17915931 166.14127287 -36.15956239 162.42771046 -36.1373291 158.71405029 C-36.11674326 154.91290455 -36.10770831 151.11173248 -36.09765625 147.31054688 C-36.07630995 139.87362537 -36.04224631 132.4368353 -36 125 C-37.10976196 125.00888245 -38.21952393 125.01776489 -39.36291504 125.0269165 C-49.83826055 125.10811964 -60.31354193 125.16802174 -70.78913116 125.20724869 C-76.17433321 125.2280939 -81.55928049 125.25635573 -86.94433594 125.30175781 C-92.1444498 125.34532461 -97.34431911 125.36916016 -102.54460144 125.37950897 C-104.52528226 125.38688088 -106.5059502 125.40127651 -108.48652649 125.42292023 C-111.26800107 125.45209818 -114.04847431 125.45594999 -116.83007812 125.45410156 C-117.64288239 125.46848267 -118.45568665 125.48286377 -119.29312134 125.49768066 C-125.85332145 125.45072811 -131.02666057 123.56579677 -136.0234375 119.25390625 C-136.46945312 118.69574219 -136.91546875 118.13757813 -137.375 117.5625 C-137.83648437 117.00691406 -138.29796875 116.45132813 -138.7734375 115.87890625 C-142.47546013 110.2079735 -142.84719256 104.59221707 -142 98 C-139.74272262 90.87546829 -136.43583309 86.69464492 -130 83 C-126.0897956 81.69659853 -122.38059445 81.86903731 -118.3059082 81.88647461 C-117.4178952 81.88632858 -116.5298822 81.88618256 -115.61495972 81.8860321 C-112.67687546 81.88672932 -109.73885444 81.89451282 -106.80078125 81.90234375 C-104.76482681 81.90420861 -102.72887192 81.90563219 -100.69291687 81.90663147 C-95.33188643 81.91045131 -89.97088303 81.92027708 -84.60986328 81.93133545 C-79.1403032 81.94156101 -73.67073876 81.94613155 -68.20117188 81.95117188 C-57.46743603 81.96189979 -46.73372026 81.97896985 -36 82 C-36.00444122 81.21818863 -36.00888245 80.43637726 -36.01345825 79.63087463 C-36.05367809 72.23146496 -36.08405674 64.83210895 -36.10362434 57.43261814 C-36.1140227 53.62926601 -36.12810896 49.82600486 -36.15087891 46.02270508 C-36.17274917 42.34630894 -36.18459825 38.66999984 -36.18975449 34.99354362 C-36.19342496 33.59705169 -36.20059186 32.20056404 -36.21146011 30.80410957 C-36.36102128 10.77458157 -36.36102128 10.77458157 -30 3 C-20.94377015 -5.8549803 -10.70164237 -5.61042417 0 0 Z " fill="#000000" transform="translate(419,110)"/>
</svg>
