<svg width="60" height="60" viewBox="0 0 60 60" fill="none" xmlns="http://www.w3.org/2000/svg">
<g clip-path="url(#clip0_258_1094)">
<path d="M40 60C38.1667 60 36.5978 59.3478 35.2933 58.0433C33.9889 56.7389 33.3356 55.1689 33.3333 53.3333V40C33.3333 38.1667 33.9867 36.5978 35.2933 35.2933C36.6 33.9889 38.1689 33.3356 40 33.3333H53.3333C55.1667 33.3333 56.7367 33.9867 58.0433 35.2933C59.35 36.6 60.0022 38.1689 60 40V53.3333C60 55.1667 59.3478 56.7367 58.0433 58.0433C56.7389 59.35 55.1689 60.0022 53.3333 60H40ZM40 26.6667C38.1667 26.6667 36.5978 26.0144 35.2933 24.71C33.9889 23.4056 33.3356 21.8356 33.3333 20V6.66667C33.3333 4.83333 33.9867 3.26444 35.2933 1.96C36.6 0.655556 38.1689 0.00222222 40 0H53.3333C55.1667 0 56.7367 0.653334 58.0433 1.96C59.35 3.26667 60.0022 4.83556 60 6.66667V20C60 21.8333 59.3478 23.4033 58.0433 24.71C56.7389 26.0167 55.1689 26.6689 53.3333 26.6667H40ZM6.66667 26.6667C4.83333 26.6667 3.26444 26.0144 1.96 24.71C0.655556 23.4056 0.00222222 21.8356 0 20V6.66667C0 4.83333 0.653334 3.26444 1.96 1.96C3.26667 0.655556 4.83556 0.00222222 6.66667 0H20C21.8333 0 23.4033 0.653334 24.71 1.96C26.0167 3.26667 26.6689 4.83556 26.6667 6.66667V20C26.6667 21.8333 26.0144 23.4033 24.71 24.71C23.4056 26.0167 21.8356 26.6689 20 26.6667H6.66667ZM6.66667 60C4.83333 60 3.26444 59.3478 1.96 58.0433C0.655556 56.7389 0.00222222 55.1689 0 53.3333V40C0 38.1667 0.653334 36.5978 1.96 35.2933C3.26667 33.9889 4.83556 33.3356 6.66667 33.3333H20C21.8333 33.3333 23.4033 33.9867 24.71 35.2933C26.0167 36.6 26.6689 38.1689 26.6667 40V53.3333C26.6667 55.1667 26.0144 56.7367 24.71 58.0433C23.4056 59.35 21.8356 60.0022 20 60H6.66667Z" fill="#07B6D5"/>
</g>
<defs>
<clipPath id="clip0_258_1094">
<rect width="60" height="60" fill="white"/>
</clipPath>
</defs>
</svg>
