<svg width="35" height="35" viewBox="0 0 35 35" fill="none" xmlns="http://www.w3.org/2000/svg">
<path d="M8.64353 26.5299L11.1737 29.0601C11.3157 29.2021 11.3901 29.3693 11.3969 29.5618C11.4027 29.7543 11.3283 29.9307 11.1737 30.0911C11.0123 30.2525 10.8388 30.3347 10.6531 30.3376C10.4674 30.3405 10.2939 30.2618 10.1325 30.1014L6.65874 26.6261C6.53137 26.4988 6.44193 26.3685 6.3904 26.2353C6.33887 26.1031 6.31311 25.9582 6.31311 25.8007C6.31311 25.6432 6.33887 25.4984 6.3904 25.3661C6.44193 25.2339 6.53137 25.1041 6.65874 24.9768L10.1325 21.5016C10.2744 21.3596 10.4431 21.2852 10.6385 21.2784C10.8339 21.2716 11.0123 21.3489 11.1737 21.5103C11.3293 21.6707 11.408 21.8428 11.41 22.0266C11.4119 22.2103 11.3332 22.3824 11.1737 22.5428L8.64353 25.0716H24.3425C24.605 25.0716 24.8203 24.9875 24.9885 24.8193C25.1567 24.6511 25.2408 24.4362 25.2408 24.1747V19.9674C25.2408 19.7603 25.3103 19.5873 25.4494 19.4482C25.5884 19.3092 25.7619 19.2392 25.97 19.2382C26.178 19.2373 26.3516 19.3073 26.4906 19.4482C26.6296 19.5892 26.6992 19.7623 26.6992 19.9674V24.1747C26.6992 24.827 26.4697 25.3827 26.0108 25.8416C25.5519 26.3005 24.9958 26.5299 24.3425 26.5299H8.64353ZM26.3564 9.92823H10.6575C10.395 9.92823 10.1801 10.0123 10.0129 10.1805C9.84374 10.3487 9.75915 10.5636 9.75915 10.8251V15.0324C9.75915 15.2395 9.68964 15.413 9.55061 15.553C9.41158 15.693 9.23804 15.7625 9.02999 15.7616C8.82193 15.7606 8.64887 15.6911 8.51082 15.553C8.37276 15.415 8.30276 15.2414 8.30082 15.0324V10.8251C8.30082 10.1727 8.53026 9.61712 8.98915 9.15823C9.44804 8.69934 10.0042 8.4699 10.6575 8.4699H26.3564L23.8277 5.93969C23.6848 5.79774 23.6104 5.63052 23.6046 5.43802C23.5987 5.24552 23.6731 5.06906 23.8277 4.90865C23.9881 4.74726 24.1612 4.6651 24.3469 4.66219C24.5335 4.65927 24.7071 4.73851 24.8675 4.8999L28.3427 8.37365C28.4691 8.50101 28.558 8.63128 28.6096 8.76448C28.6611 8.8967 28.6869 9.04156 28.6869 9.19906C28.6869 9.35656 28.6611 9.50142 28.6096 9.63365C28.559 9.76587 28.4701 9.89566 28.3427 10.023L24.8675 13.4982C24.7255 13.6402 24.5569 13.7145 24.3614 13.7214C24.166 13.7282 23.9881 13.6509 23.8277 13.4895C23.6721 13.3291 23.5929 13.157 23.59 12.9732C23.5871 12.7895 23.6663 12.6174 23.8277 12.457L26.3564 9.92823Z" fill="white"/>
</svg>
