<svg width="60" height="60" viewBox="0 0 60 60" fill="none" xmlns="http://www.w3.org/2000/svg">
<path d="M42.8571 60C40.5 60 38.4829 59.1614 36.8057 57.4843C35.1286 55.8071 34.2886 53.7886 34.2857 51.4286V8.57143C34.2857 6.21428 35.1257 4.19714 36.8057 2.52C38.4857 0.842856 40.5029 0.00285714 42.8571 0H51.4286C53.7857 0 55.8043 0.839999 57.4843 2.52C59.1643 4.2 60.0028 6.21714 60 8.57143V51.4286C60 53.7857 59.1614 55.8043 57.4843 57.4843C55.8071 59.1643 53.7886 60.0028 51.4286 60H42.8571ZM8.57143 60C6.21428 60 4.19714 59.1614 2.52 57.4843C0.842856 55.8071 0.00285714 53.7886 0 51.4286V8.57143C0 6.21428 0.839999 4.19714 2.52 2.52C4.2 0.842856 6.21714 0.00285714 8.57143 0H17.1429C19.5 0 21.5186 0.839999 23.1986 2.52C24.8786 4.2 25.7171 6.21714 25.7143 8.57143V51.4286C25.7143 53.7857 24.8757 55.8043 23.1986 57.4843C21.5214 59.1643 19.5029 60.0028 17.1429 60H8.57143ZM42.8571 51.4286H51.4286V8.57143H42.8571V51.4286ZM8.57143 51.4286H17.1429V8.57143H8.57143V51.4286Z" fill="white"/>
</svg>
