<svg width="50" height="51" viewBox="0 0 50 51" fill="none" xmlns="http://www.w3.org/2000/svg">
<path d="M49.9466 26.4296C49.6348 36.017 39.674 43.5776 27.0258 44.4985L26.8421 50.1477L12.2781 40.1582L27.4603 31.136L27.2554 37.437C30.9147 36.9473 34.213 35.5619 36.6121 33.5067C39.0112 31.4516 40.3694 28.8481 40.465 26.1213C40.5931 22.1832 38.0662 18.6209 34.1592 16.2916L41.5608 11.8831C44.285 13.7517 46.4426 16.0166 47.889 18.5255C49.3354 21.0345 50.0369 23.7295 49.9466 26.4296ZM0.00840697 23.7181C0.31931 14.1579 10.281 6.57009 22.9292 5.6492L23.1129 9.40371e-06L37.6769 9.98953C32.6282 13.0064 27.5433 15.9949 22.4947 19.0117L22.6996 12.7107C19.0403 13.2004 15.742 14.5859 13.3429 16.641C10.9438 18.6962 9.58559 21.2996 9.48999 24.0264C9.36191 27.9646 11.8888 31.5268 15.7958 33.8562L8.39418 38.2646C5.66619 36.3981 3.50591 34.1337 2.05925 31.6242C0.612588 29.1147 -0.0867696 26.4186 0.00840697 23.7181Z" fill="white"/>
</svg>
