<svg width="26" height="26" viewBox="0 0 26 26" fill="none" xmlns="http://www.w3.org/2000/svg">
<path d="M13 6.15601C7.98001 6.15601 3.28801 8.65001 0.469015 12.813C0.344707 12.9972 0.258187 13.2043 0.214468 13.4222C0.170748 13.6401 0.170698 13.8645 0.214319 14.0824C0.257941 14.3003 0.344367 14.5074 0.468592 14.6917C0.592817 14.876 0.752372 15.0338 0.938015 15.156C1.23001 15.356 1.54601 15.469 1.87501 15.469C2.42101 15.469 2.98301 15.204 3.31301 14.719C3.41701 14.564 3.54501 14.429 3.65601 14.281C4.32579 16.2257 5.58639 17.9127 7.26167 19.106C8.93694 20.2993 10.9432 20.9395 13 20.937C15.0569 20.9395 17.0631 20.2993 18.7384 19.106C20.4136 17.9127 21.6742 16.2257 22.344 14.281C22.454 14.43 22.583 14.564 22.687 14.719C23.212 15.497 24.282 15.682 25.062 15.156C25.2479 15.0339 25.4076 14.8761 25.5321 14.6918C25.6565 14.5074 25.743 14.3003 25.7868 14.0822C25.8305 13.8642 25.8305 13.6396 25.7867 13.4216C25.743 13.2035 25.6564 12.9963 25.532 12.812C24.1463 10.7628 22.2794 9.08453 20.0945 7.92431C17.9097 6.76408 15.4738 6.15627 13 6.15601ZM13 9.78101C13.8531 9.78312 14.6706 10.1229 15.2739 10.7262C15.8771 11.3294 16.2169 12.1469 16.219 13C16.2169 13.8531 15.8771 14.6706 15.2739 15.2738C14.6706 15.8771 13.8531 16.2169 13 16.219C12.1469 16.2169 11.3294 15.8771 10.7262 15.2738C10.1229 14.6706 9.78313 13.8531 9.78101 13C9.78313 12.1469 10.1229 11.3294 10.7262 10.7262C11.3294 10.1229 12.1469 9.78312 13 9.78101ZM16.969 10.25C18.639 10.85 20.126 11.839 21.375 13.125C20.442 16.883 17.043 19.688 13 19.688C8.95701 19.688 5.55801 16.883 4.62501 13.125C5.85957 11.8558 7.36607 10.8834 9.03101 10.281C8.53605 11.0037 8.24776 11.8479 8.19722 12.7224C8.14668 13.5969 8.33581 14.4686 8.74421 15.2435C9.15262 16.0185 9.76481 16.6672 10.5148 17.1198C11.2648 17.5725 12.124 17.8118 13 17.812C13.6321 17.8124 14.2581 17.6882 14.8421 17.4465C15.4262 17.2049 15.9569 16.8504 16.4038 16.4035C16.8508 15.9566 17.2054 15.426 17.4472 14.842C17.689 14.258 17.8133 13.6321 17.813 13C17.8194 12.0186 17.5249 11.0588 16.969 10.25Z" fill="black"/>
</svg>
